<svg xmlns="http://www.w3.org/2000/svg" width="64.056" height="64.064" viewBox="0 0 64.056 64.064">
  <g id="_34_Globe" data-name="34 Globe" transform="translate(-32.2 -15.962)">
    <circle id="Ellipse_39" data-name="Ellipse 39" cx="32" cy="32" r="32" transform="translate(32.2 16)" fill="#4d91bb"/>
    <path id="Path_138" data-name="Path 138" d="M32.81,48.61C32.81,20.25,67,6.1,87.13,25.69,67.18,5.19,32.2,19.33,32.2,48a31.9,31.9,0,0,0,9.69,22.93,31.89,31.89,0,0,1-9.08-22.32Z" fill="#7aaccc"/>
    <path id="Path_139" data-name="Path 139" d="M76.86,18.61a32,32,0,0,1-29,56.91C69,88.09,96.2,72.9,96.2,48A32,32,0,0,0,76.859,18.61Z" fill="#2175aa"/>
    <path id="Path_140" data-name="Path 140" d="M47.53,56.87,60.73,60a4.5,4.5,0,0,1,3.47,4.38V80a32,32,0,0,1-32-32h7.37a4.5,4.5,0,0,1,4.5,4.5,4.5,4.5,0,0,0,3.46,4.37Zm4-38.27,1.28,4.94a4.12,4.12,0,0,0,3.93,3,4.06,4.06,0,0,1,3.86,2.81l2.67,8.21a4.06,4.06,0,0,0,3.86,2.81c7.92,0,10-.57,11.45,2.18,3.8,7.27,4.32,9.59,7.47,9.59H95.9C99.17,27.31,74.08,8.89,51.55,18.6Z" fill="#add65c"/>
    <path id="Path_141" data-name="Path 141" d="M60.64,25.41a20.34,20.34,0,0,0-3.85,1.18,4,4,0,0,1,2.11.62C59.46,26.59,60,26,60.64,25.41Z" fill="#c2e085"/>
    <path id="Path_142" data-name="Path 142" d="M50.62,66.84a39,39,0,0,1-2-9.71l-1.11-.26a4.5,4.5,0,0,1-3.47-4.38,4.47,4.47,0,0,0-1.6-3.41,22.77,22.77,0,0,0,8.18,17.76Z" fill="#c2e085"/>
    <path id="Path_143" data-name="Path 143" d="M51.55,18.6l.21.8a32,32,0,0,1,35.37,6.29C78.12,16.68,65.15,13.16,51.55,18.6Z" fill="#c2e085"/>
    <path id="Path_144" data-name="Path 144" d="M41.88,70.93A31.83,31.83,0,0,1,32.83,48H32.2a32,32,0,0,0,9.679,22.93Z" fill="#c2e085"/>
    <path id="Path_145" data-name="Path 145" d="M76.86,18.61A32,32,0,0,1,92,52.19h4C98.28,34.17,84.81,21.26,76.86,18.61Z" fill="#9c3"/>
    <path id="Path_146" data-name="Path 146" d="M60.53,78.13a31.89,31.89,0,0,1-12.66-2.61A32,32,0,0,0,64.2,80V77.91a32.288,32.288,0,0,1-3.67.22Z" fill="#9c3"/>
  </g>
</svg>
